<svg id="Layer_1" data-name="Layer 1" xmlns="http://www.w3.org/2000/svg" xmlns:xlink="http://www.w3.org/1999/xlink" viewBox="0 0 64.64 30"><defs><style>.cls-1{fill:none;}.cls-2{fill:#0c0e0f;}.cls-3{fill:#ff5b00;}.cls-4{clip-path:url(#clip-path);}.cls-5{opacity:0.17;}.cls-6{fill:#ff9700;}</style><clipPath id="clip-path" transform="translate(-927.24 -524.97)"><path id="SVGID" class="cls-1" d="M964.73,554.91l-1.28-4.32h-10l-1.28,4.32h-8.3L953.78,525h9.32L973,554.91ZM955.45,544h6l-3-10.18Z"/></clipPath></defs><title>faf_logo</title><path class="cls-2" d="M945.63,532.37H934.89v4.88h10.53v7.4H934.89v10.26h-7.65V525h18.39Z" transform="translate(-927.24 -524.97)"/><path class="cls-2" d="M973.48,532.37h10.74v4.88H973.7v7.4h10.52v10.26h7.66V525h-18.4Z" transform="translate(-927.24 -524.97)"/><path class="cls-2" d="M964.73,554.91l-1.28-4.32h-10l-1.28,4.32h-8.3L953.78,525h9.32L973,554.91ZM955.45,544h6l-3-10.18Z" transform="translate(-927.24 -524.97)"/><polygon class="cls-3" points="45.81 30 40.73 14.72 32.92 14.62 37.51 29.91 45.81 30"/><g class="cls-4"><g class="cls-5"><polygon class="cls-2" points="47.98 27.05 32.68 27.05 30.54 20.46 45.83 20.46 47.98 27.05"/></g></g><polygon class="cls-6" points="47.98 25.62 32.68 25.62 30.54 19.04 45.83 19.04 47.98 25.62"/></svg>